<svg width="744" height="744" viewBox="0 0 744 744" fill="none" xmlns="http://www.w3.org/2000/svg">
<path d="M446.01 254.347L569.208 409.135L260.895 709.865L81.8476 491.14L446.01 254.347Z" fill="#D58A9F"/>
<path fill-rule="evenodd" clip-rule="evenodd" d="M260.445 717.895L73.8002 489.889L447.187 247.099L576.52 409.595L260.445 717.895ZM561.896 408.675L444.833 261.595L89.8942 492.39L261.345 701.834L561.896 408.675Z" fill="white"/>
<path d="M196.601 565.211L216.629 368.396L647.32 368.701L622.569 650.279L196.601 565.211Z" fill="#950C2A"/>
<path fill-rule="evenodd" clip-rule="evenodd" d="M653.257 363.27L627.456 656.796L190.698 569.573L211.723 362.958L653.257 363.27ZM221.542 373.834L202.512 560.848L617.69 643.762L641.391 374.132L221.542 373.834Z" fill="white"/>
<path fill-rule="evenodd" clip-rule="evenodd" d="M456.979 490.7L206.976 436.352L209.285 425.73L459.288 480.079L456.979 490.7Z" fill="white"/>
<path d="M241.503 282.593L374.089 135.767L721.139 390.818L534.597 603.187L241.503 282.593Z" fill="#F0932C"/>
<path fill-rule="evenodd" clip-rule="evenodd" d="M729.135 389.95L534.677 611.33L234.159 282.615L373.347 128.477L729.135 389.95ZM374.829 143.055L248.845 282.57L534.515 595.044L713.142 391.686L374.829 143.055Z" fill="white"/>
<path fill-rule="evenodd" clip-rule="evenodd" d="M554.81 436.352L391.765 295.046L398.884 286.832L561.929 428.138L554.81 436.352Z" fill="white"/>
<path d="M141.759 485.265L22.1923 327.655L337.413 34.1742L511.327 257.002L141.759 485.265Z" fill="#300729"/>
<path fill-rule="evenodd" clip-rule="evenodd" d="M338.051 26.1562L519.345 258.44L140.415 492.484L14.8945 327.026L338.051 26.1562ZM29.4934 328.285L143.106 478.047L503.313 255.566L336.778 42.1924L29.4934 328.285Z" fill="white"/>
<path fill-rule="evenodd" clip-rule="evenodd" d="M337.415 240.698L83.381 399.319L76.6685 390.47L331.654 231.48L337.415 240.698Z" fill="white"/>
</svg>
